<svg id="svg" version="1.1" xmlns="http://www.w3.org/2000/svg" xmlns:xlink="http://www.w3.org/1999/xlink" width="400" height="300" viewBox="0, 0, 400,300"><g id="svgg"><path id="path0" d="M234.959 138.035 C 234.959 141.005,234.883 143.436,234.791 143.436 C 234.699 143.436,234.125 143.042,233.516 142.560 C 226.066 136.669,216.445 144.337,218.089 154.855 C 219.304 162.628,228.335 166.721,233.751 161.953 L 234.809 161.022 234.959 162.207 L 235.109 163.391 238.785 163.475 L 242.461 163.559 242.461 148.096 L 242.461 132.633 238.710 132.633 L 234.959 132.633 234.959 138.035 M316.051 148.012 L 316.129 163.391 319.805 163.475 L 323.481 163.559 323.481 157.084 C 323.481 148.832,324.161 147.337,327.912 147.337 C 331.325 147.337,331.879 148.729,331.881 157.314 L 331.883 163.541 335.484 163.541 L 339.085 163.541 339.085 155.643 C 339.085 146.464,338.897 145.396,336.908 143.238 C 333.976 140.057,328.163 139.924,324.869 142.963 C 324.229 143.553,323.655 144.036,323.593 144.036 C 323.531 144.036,323.481 141.470,323.481 138.335 L 323.481 132.633 319.727 132.633 L 315.974 132.633 316.051 148.012 M156.039 148.987 L 156.039 163.541 159.340 163.541 L 162.641 163.541 162.641 154.689 C 162.641 145.367,162.740 144.767,163.873 147.262 C 164.229 148.046,164.908 149.535,165.381 150.570 C 165.854 151.606,166.242 152.525,166.242 152.612 C 166.242 152.773,166.710 153.833,168.531 157.786 C 169.087 158.995,169.542 160.109,169.542 160.262 C 169.542 160.415,170.724 160.540,172.168 160.539 L 174.794 160.538 175.675 158.364 C 176.159 157.168,177.016 155.176,177.578 153.938 C 178.140 152.701,178.773 151.283,178.983 150.788 C 180.718 146.709,181.124 145.852,181.320 145.845 C 181.444 145.840,181.545 149.820,181.545 154.689 L 181.545 163.541 184.996 163.541 L 188.447 163.541 188.447 148.987 L 188.447 134.434 184.236 134.434 L 180.025 134.434 179.023 136.609 C 178.472 137.806,177.716 139.460,177.343 140.285 C 176.970 141.110,176.295 142.596,175.844 143.586 C 175.393 144.576,174.726 146.062,174.363 146.887 C 172.143 151.928,172.310 151.869,170.636 148.215 C 170.074 146.989,169.198 145.082,168.689 143.976 C 168.179 142.870,167.559 141.478,167.310 140.883 C 167.062 140.288,166.292 138.594,165.601 137.117 L 164.344 134.434 160.191 134.434 L 156.039 134.434 156.039 148.987 M249.598 139.010 L 249.512 142.086 248.122 142.176 C 246.504 142.280,246.247 142.831,246.565 145.516 L 246.745 147.037 248.204 147.037 L 249.662 147.037 249.662 152.693 C 249.662 159.954,250.056 161.188,252.908 162.865 C 255.466 164.368,262.860 163.809,262.868 162.112 C 262.878 160.137,261.809 157.500,261.068 157.670 C 258.762 158.201,258.512 158.191,257.689 157.545 L 256.864 156.896 256.864 151.977 L 256.864 147.058 259.790 146.973 L 262.716 146.887 262.803 144.572 L 262.891 142.258 259.952 142.172 L 257.014 142.086 256.929 139.010 L 256.843 135.934 253.263 135.934 L 249.683 135.934 249.598 139.010 M114.259 142.761 C 114.042 151.500,113.043 154.350,108.646 158.771 C 104.506 162.933,100.778 164.141,92.075 164.141 L 86.700 164.141 86.812 170.818 C 86.919 177.183,87.343 180.945,87.952 180.945 C 88.100 180.945,88.222 181.125,88.222 181.346 C 88.222 181.936,90.496 185.078,91.590 186.000 C 93.815 187.873,95.993 188.744,99.740 189.258 C 103.924 189.832,110.409 186.088,112.336 181.984 C 112.643 181.330,113.045 180.525,113.228 180.195 C 113.421 179.847,113.599 177.575,113.651 174.794 C 113.763 168.812,114.204 167.138,116.121 165.408 C 117.766 163.924,118.411 163.774,124.081 163.555 C 127.052 163.440,129.752 163.243,130.083 163.116 C 139.951 159.340,142.772 147.606,135.536 140.428 C 132.123 137.042,130.312 136.551,121.198 136.541 L 114.414 136.534 114.259 142.761 M202.101 140.910 C 199.421 141.555,198.604 141.861,197.218 142.737 C 194.089 144.715,192.680 147.659,192.661 152.262 C 192.649 155.150,193.310 158.440,193.903 158.440 C 194.038 158.440,194.149 158.624,194.149 158.849 C 194.149 159.426,196.834 161.869,198.068 162.414 C 200.681 163.569,201.285 163.691,204.351 163.681 C 208.386 163.668,211.696 162.537,213.487 160.558 L 214.071 159.913 212.236 158.079 L 210.402 156.245 208.858 157.236 C 205.906 159.130,202.025 158.491,200.471 155.856 C 199.523 154.250,199.575 154.239,207.820 154.239 L 215.454 154.239 215.454 151.706 C 215.454 150.313,215.319 149.089,215.154 148.987 C 214.989 148.885,214.854 148.534,214.854 148.207 C 214.854 144.054,207.210 139.681,202.101 140.910 M274.419 140.908 C 266.268 142.846,262.590 150.583,266.252 158.089 C 269.287 164.309,280.012 165.850,285.671 160.879 L 286.722 159.957 284.884 158.113 L 283.046 156.270 281.632 157.098 C 278.580 158.887,275.769 158.756,273.744 156.730 C 271.443 154.429,271.492 154.411,280.274 154.239 L 287.922 154.089 288.020 152.738 C 288.561 145.244,281.610 139.198,274.419 140.908 M298.427 141.249 C 287.987 143.982,287.443 159.835,297.674 163.155 C 299.723 163.820,304.154 163.874,306.077 163.258 C 309.989 162.004,312.961 158.833,311.103 157.895 C 310.731 157.707,309.752 157.151,308.927 156.659 C 307.076 155.555,307.047 155.554,305.857 156.603 C 301.645 160.318,296.364 156.194,297.945 150.426 C 298.913 146.893,302.932 145.611,305.625 147.976 C 306.871 149.070,306.888 149.069,309.227 147.637 C 310.306 146.977,311.321 146.437,311.483 146.437 C 312.121 146.437,311.720 145.460,310.567 144.209 C 307.815 141.223,303.005 140.051,298.427 141.249 M206.360 146.423 C 207.592 147.175,208.300 148.268,208.357 149.506 L 208.402 150.488 204.320 150.571 C 199.454 150.670,199.206 150.545,200.231 148.516 C 201.484 146.036,204.202 145.108,206.360 146.423 M279.015 146.446 C 279.625 146.817,280.244 147.580,280.612 148.413 C 281.554 150.541,281.300 150.671,276.401 150.571 L 272.318 150.488 272.413 149.605 C 272.728 146.694,276.478 144.899,279.015 146.446 M231.600 146.842 C 236.947 148.779,235.773 158.140,230.183 158.140 C 224.962 158.140,223.062 149.450,227.807 147.270 C 229.833 146.338,230.121 146.306,231.600 146.842 M87.839 167.217 C 87.772 167.753,87.718 167.314,87.718 166.242 C 87.718 165.169,87.772 164.730,87.839 165.266 C 87.906 165.803,87.906 166.680,87.839 167.217 " stroke="none" fill="#144669" fill-rule="evenodd"></path><path id="path1" d="M0.000 150.038 L 0.000 300.075 200.000 300.075 L 400.000 300.075 400.000 150.038 L 400.000 0.000 200.000 0.000 L 0.000 0.000 0.000 150.038 M105.963 111.729 C 112.400 114.805,114.036 118.146,114.253 128.657 L 114.402 135.934 121.160 135.934 C 132.802 135.934,137.612 138.737,139.683 146.729 C 142.207 156.468,135.126 164.141,123.615 164.141 C 119.438 164.141,119.074 164.188,117.747 164.893 C 115.148 166.275,114.629 167.475,114.629 172.101 C 114.629 178.834,113.472 182.421,110.276 185.604 C 102.787 193.060,90.654 190.127,86.829 179.935 C 86.475 178.992,86.326 176.955,86.206 171.442 L 86.049 164.189 79.108 164.080 C 72.794 163.980,71.992 163.908,70.218 163.280 C 59.069 159.336,57.483 144.518,67.531 138.176 C 69.791 136.749,71.004 136.492,76.529 136.266 C 85.177 135.913,86.168 134.971,86.451 126.832 C 86.733 118.698,88.842 114.625,94.102 112.051 C 97.440 110.418,102.907 110.269,105.963 111.729 M242.694 147.637 C 242.796 166.271,243.307 164.141,238.736 164.141 C 234.800 164.141,234.659 164.088,234.659 162.616 C 234.659 161.873,234.672 161.870,232.830 163.016 C 228.209 165.888,221.423 163.624,218.664 158.290 C 217.578 156.191,217.234 149.310,218.122 147.457 C 218.351 146.978,218.756 146.137,219.022 145.587 C 221.451 140.562,229.083 138.772,233.683 142.150 L 234.659 142.866 234.659 137.800 C 234.659 131.753,234.237 132.297,238.843 132.400 L 242.611 132.483 242.694 147.637 M323.713 137.994 L 323.795 143.504 324.574 142.724 C 327.798 139.500,334.258 139.648,337.293 143.016 C 339.323 145.268,339.685 147.219,339.685 155.913 C 339.685 164.808,340.036 164.141,335.355 164.141 C 330.852 164.141,331.283 164.941,331.283 156.586 C 331.283 149.745,331.027 148.237,329.868 148.237 C 329.656 148.237,329.482 148.102,329.482 147.937 C 329.482 147.350,326.812 147.611,325.759 148.302 C 323.970 149.474,323.938 149.611,323.851 156.489 C 323.743 165.023,324.215 164.141,319.756 164.141 C 316.647 164.141,316.014 164.064,315.861 163.666 C 315.606 163.002,315.632 132.780,315.887 132.525 C 316.002 132.410,317.791 132.354,319.863 132.400 L 323.631 132.483 323.713 137.994 M164.772 134.434 C 165.253 135.315,168.042 141.358,168.042 141.519 C 168.042 141.609,168.500 142.651,169.059 143.834 C 169.618 145.018,170.529 146.965,171.084 148.161 C 172.269 150.713,172.264 150.711,172.985 149.062 C 173.292 148.361,173.976 146.842,174.505 145.686 C 175.034 144.531,175.772 142.911,176.144 142.086 C 178.379 137.133,178.910 135.979,179.391 135.034 L 179.924 133.983 184.261 133.983 L 188.597 133.983 188.680 148.387 C 188.783 166.099,189.237 164.141,185.023 164.141 C 180.838 164.141,181.250 165.129,181.227 155.039 L 181.208 146.887 180.628 148.087 C 179.662 150.083,178.078 153.648,177.027 156.189 C 176.480 157.509,175.753 159.130,175.410 159.790 L 174.787 160.990 172.205 161.076 L 169.623 161.162 168.833 159.493 C 168.398 158.574,168.042 157.760,168.042 157.682 C 168.042 157.605,167.594 156.562,167.047 155.365 C 166.500 154.168,165.658 152.243,165.177 151.088 C 163.129 146.174,163.267 145.885,163.248 155.139 C 163.228 165.032,163.602 164.183,159.316 164.076 L 155.889 163.991 155.811 149.287 C 155.768 141.200,155.799 134.411,155.880 134.200 C 156.110 133.600,164.437 133.819,164.772 134.434 M257.100 138.560 L 257.185 141.635 259.701 141.635 C 263.267 141.635,263.166 141.552,263.166 144.486 C 263.166 147.421,263.269 147.337,259.690 147.337 L 257.164 147.337 257.174 151.913 C 257.186 157.628,258.084 158.835,261.114 157.213 C 261.876 156.806,262.086 157.030,262.545 158.740 C 263.631 162.781,263.626 162.803,261.434 163.647 C 257.094 165.320,249.962 163.137,249.962 160.136 C 249.962 159.883,249.827 159.592,249.662 159.490 C 249.489 159.383,249.362 157.751,249.362 155.616 C 249.362 153.588,249.275 150.895,249.168 149.633 L 248.974 147.337 247.993 147.337 C 246.145 147.337,246.062 147.214,246.062 144.486 C 246.062 141.758,246.145 141.635,247.996 141.635 C 249.094 141.635,249.362 140.781,249.362 137.292 C 249.362 135.244,249.235 135.304,253.397 135.400 L 257.014 135.484 257.100 138.560 M208.517 141.071 C 213.152 142.636,215.565 146.240,215.979 152.213 L 216.140 154.539 208.463 154.539 C 200.332 154.539,200.024 154.595,200.891 155.916 C 202.367 158.169,206.255 158.541,208.939 156.687 L 210.377 155.693 212.540 157.820 L 214.704 159.946 213.520 161.016 C 207.511 166.446,195.945 164.640,193.179 157.839 C 193.011 157.427,192.722 156.765,192.536 156.369 C 191.776 154.747,192.139 149.174,193.143 147.037 C 195.742 141.506,202.287 138.967,208.517 141.071 M281.857 141.303 C 285.740 142.833,288.670 147.771,288.672 152.789 C 288.672 154.609,288.989 154.539,280.829 154.539 C 272.692 154.539,272.416 154.600,273.567 156.149 C 275.063 158.160,278.543 158.449,281.299 156.790 L 283.042 155.740 285.145 157.789 L 287.247 159.838 286.140 160.914 C 279.205 167.648,266.639 164.065,264.777 154.821 C 262.805 145.035,272.287 137.531,281.857 141.303 M305.814 140.888 C 308.186 141.707,309.718 142.640,310.907 143.990 C 311.994 145.225,312.476 146.737,311.783 146.737 C 311.621 146.737,310.642 147.252,309.608 147.881 C 306.910 149.523,306.816 149.540,305.701 148.571 C 301.918 145.280,297.377 148.207,298.162 153.431 C 298.793 157.630,303.506 159.088,306.040 155.868 C 306.733 154.986,306.518 154.930,310.128 156.920 C 312.938 158.469,312.967 158.704,310.637 161.002 C 305.318 166.250,294.276 164.777,291.265 158.419 C 286.426 148.202,295.461 137.316,305.814 140.888 M202.323 146.735 C 201.352 147.327,200.153 148.943,200.151 149.662 C 200.150 149.943,201.130 150.038,204.051 150.038 L 207.952 150.038 207.952 149.161 C 207.952 146.949,204.448 145.439,202.323 146.735 M274.666 146.827 C 273.641 147.529,272.768 148.785,272.768 149.559 C 272.768 149.973,273.298 150.038,276.669 150.038 C 281.028 150.038,281.160 149.958,279.982 148.027 C 278.839 146.152,276.441 145.611,274.666 146.827 M228.150 147.477 C 225.099 148.803,224.712 155.165,227.568 157.037 C 230.503 158.959,234.182 156.985,234.561 153.284 C 235.025 148.754,231.843 145.871,228.150 147.477 " stroke="none" fill="#fbfbfb" fill-rule="evenodd"></path><path id="path2" d="M107.352 125.638 C 107.063 125.714,106.827 125.908,106.827 126.069 C 106.827 126.231,106.432 126.500,105.951 126.668 C 105.469 126.836,105.000 127.167,104.910 127.403 C 104.819 127.639,104.522 127.832,104.250 127.832 C 103.978 127.832,103.215 128.372,102.555 129.032 C 101.895 129.692,101.168 130.233,100.940 130.233 C 100.712 130.233,100.525 130.390,100.525 130.583 C 100.525 130.775,100.433 130.841,100.321 130.728 C 100.209 130.616,99.735 130.890,99.269 131.336 C 98.803 131.783,98.188 132.183,97.903 132.224 C 97.618 132.266,97.338 132.443,97.280 132.617 C 97.222 132.791,96.938 132.933,96.650 132.933 C 96.361 132.933,95.939 133.282,95.710 133.709 C 95.248 134.572,93.286 136.234,92.729 136.234 C 92.532 136.234,91.925 136.655,91.380 137.169 C 90.835 137.684,90.337 138.055,90.273 137.994 C 90.210 137.934,89.959 138.051,89.715 138.255 C 88.420 139.339,87.415 140.054,86.942 140.226 C 86.651 140.333,86.290 140.742,86.140 141.137 C 85.871 141.844,85.270 142.236,84.453 142.236 C 84.223 142.236,83.280 142.978,82.357 143.886 C 81.435 144.794,80.549 145.536,80.388 145.536 C 80.227 145.536,79.805 145.806,79.451 146.137 C 79.096 146.467,78.612 146.737,78.373 146.737 C 78.135 146.737,77.721 146.986,77.455 147.290 C 77.188 147.595,76.452 148.088,75.819 148.387 C 75.186 148.685,74.384 149.314,74.037 149.784 C 73.690 150.253,73.280 150.638,73.126 150.638 C 72.872 150.638,71.671 151.575,70.025 153.059 C 69.672 153.378,69.247 153.638,69.082 153.638 C 68.916 153.638,68.347 154.044,67.817 154.539 C 67.287 155.034,66.691 155.439,66.494 155.439 C 64.762 155.439,63.947 158.152,65.629 158.316 C 66.090 158.361,67.446 158.494,68.642 158.612 C 70.091 158.755,70.818 158.954,70.818 159.209 C 70.818 159.419,70.903 159.812,71.007 160.083 C 71.137 160.424,71.000 160.627,70.560 160.742 C 70.210 160.834,69.998 161.028,70.089 161.174 C 70.179 161.321,69.946 161.440,69.571 161.440 C 68.981 161.440,68.948 161.495,69.328 161.847 C 70.545 162.973,72.261 163.252,79.018 163.420 C 82.677 163.512,85.840 163.640,86.047 163.704 C 86.330 163.793,86.438 165.562,86.491 170.958 L 86.560 178.095 86.646 171.118 L 86.733 164.141 91.904 164.141 C 103.933 164.140,110.966 159.710,113.477 150.552 C 113.870 149.119,114.300 135.933,113.953 135.934 C 113.830 135.934,113.715 134.955,113.699 133.758 C 113.682 132.562,113.570 130.840,113.449 129.932 L 113.229 128.282 112.990 129.557 C 112.769 130.739,112.228 131.354,112.228 130.424 C 112.228 130.150,111.981 130.063,111.478 130.159 C 111.065 130.238,110.728 130.422,110.728 130.568 C 110.728 130.713,110.525 130.833,110.278 130.833 C 110.030 130.833,109.827 130.968,109.827 131.133 C 109.827 131.298,109.703 131.433,109.551 131.433 C 109.262 131.433,109.189 131.140,108.596 127.607 C 108.395 126.410,108.151 125.447,108.054 125.466 C 107.957 125.485,107.641 125.563,107.352 125.638 M87.718 166.242 C 87.718 167.314,87.772 167.753,87.839 167.217 C 87.906 166.680,87.906 165.803,87.839 165.266 C 87.772 164.730,87.718 165.169,87.718 166.242 M114.144 172.843 C 114.144 174.906,114.192 175.750,114.251 174.719 C 114.309 173.687,114.309 171.999,114.251 170.968 C 114.192 169.936,114.144 170.780,114.144 172.843 M86.882 179.220 C 86.997 179.756,87.219 180.398,87.377 180.645 C 87.587 180.975,87.619 180.895,87.497 180.345 C 87.405 179.932,87.328 179.291,87.326 178.920 C 87.324 178.548,87.176 178.245,86.998 178.245 C 86.790 178.245,86.748 178.593,86.882 179.220 M87.816 181.770 C 87.892 182.059,88.212 182.633,88.526 183.046 C 89.077 183.769,89.092 183.771,88.925 183.121 C 88.830 182.749,88.633 182.446,88.487 182.446 C 88.341 182.446,88.222 182.251,88.222 182.013 C 88.222 181.775,88.100 181.505,87.950 181.413 C 87.800 181.320,87.740 181.481,87.816 181.770 M90.466 185.439 C 91.275 186.261,91.981 186.889,92.035 186.835 C 92.157 186.713,89.411 183.946,89.169 183.946 C 89.073 183.946,89.657 184.618,90.466 185.439 M93.023 187.514 C 93.436 187.855,93.976 188.136,94.224 188.139 C 94.618 188.143,94.378 187.983,92.649 187.089 C 92.442 186.982,92.611 187.173,93.023 187.514 M99.243 189.564 C 99.776 189.630,100.721 189.631,101.344 189.566 C 101.966 189.501,101.530 189.447,100.375 189.446 C 99.220 189.444,98.710 189.498,99.243 189.564 " stroke="none" fill="#6ab7d4" fill-rule="evenodd"></path><path id="path3" d="M96.709 111.001 C 90.033 112.710,86.766 117.751,86.451 126.832 C 86.168 134.971,85.177 135.913,76.529 136.266 C 71.004 136.492,69.791 136.749,67.531 138.176 C 57.483 144.518,59.069 159.336,70.218 163.280 C 71.993 163.909,72.793 163.980,79.139 164.080 L 86.110 164.189 86.197 170.392 L 86.284 176.594 86.353 170.208 C 86.406 165.313,86.334 163.795,86.047 163.704 C 85.840 163.640,82.677 163.512,79.018 163.420 C 72.261 163.252,70.545 162.973,69.328 161.847 C 68.948 161.495,68.981 161.440,69.571 161.440 C 69.946 161.440,70.179 161.321,70.089 161.174 C 69.998 161.028,70.210 160.834,70.560 160.742 C 71.000 160.627,71.137 160.424,71.007 160.083 C 70.903 159.812,70.818 159.419,70.818 159.209 C 70.818 158.954,70.091 158.755,68.642 158.612 C 67.446 158.494,66.090 158.361,65.629 158.316 C 63.947 158.152,64.762 155.439,66.494 155.439 C 66.691 155.439,67.287 155.034,67.817 154.539 C 68.347 154.044,68.916 153.638,69.082 153.638 C 69.247 153.638,69.672 153.378,70.025 153.059 C 71.671 151.575,72.872 150.638,73.126 150.638 C 73.280 150.638,73.690 150.253,74.037 149.784 C 74.384 149.314,75.186 148.685,75.819 148.387 C 76.452 148.088,77.188 147.595,77.455 147.290 C 77.721 146.986,78.135 146.737,78.373 146.737 C 78.612 146.737,79.096 146.467,79.451 146.137 C 79.805 145.806,80.227 145.536,80.388 145.536 C 80.549 145.536,81.435 144.794,82.357 143.886 C 83.280 142.978,84.223 142.236,84.453 142.236 C 85.270 142.236,85.871 141.844,86.140 141.137 C 86.290 140.742,86.651 140.333,86.942 140.226 C 87.415 140.054,88.420 139.339,89.715 138.255 C 89.959 138.051,90.229 137.916,90.315 137.955 C 90.402 137.993,90.900 137.622,91.422 137.130 C 91.944 136.637,92.532 136.234,92.729 136.234 C 93.286 136.234,95.248 134.572,95.710 133.709 C 95.939 133.282,96.361 132.933,96.650 132.933 C 96.938 132.933,97.222 132.791,97.280 132.617 C 97.338 132.443,97.618 132.266,97.903 132.224 C 98.188 132.183,98.803 131.783,99.269 131.336 C 99.735 130.890,100.209 130.616,100.321 130.728 C 100.433 130.841,100.525 130.775,100.525 130.583 C 100.525 130.390,100.712 130.233,100.940 130.233 C 101.168 130.233,101.895 129.692,102.555 129.032 C 103.215 128.372,103.944 127.832,104.174 127.832 C 104.404 127.832,104.824 127.562,105.107 127.232 C 105.389 126.902,105.818 126.632,106.059 126.632 C 106.300 126.632,106.605 126.447,106.737 126.221 C 107.530 124.863,108.222 125.378,108.595 127.602 C 109.189 131.141,109.262 131.433,109.551 131.433 C 109.703 131.433,109.827 131.298,109.827 131.133 C 109.827 130.968,110.030 130.833,110.278 130.833 C 110.525 130.833,110.728 130.713,110.728 130.568 C 110.728 130.422,111.065 130.238,111.478 130.159 C 111.981 130.063,112.228 130.150,112.228 130.424 C 112.228 131.354,112.769 130.739,112.990 129.557 L 113.229 128.282 113.449 129.932 C 113.570 130.840,113.682 132.559,113.699 133.753 C 113.726 135.746,113.783 135.935,114.404 136.074 C 115.446 136.309,129.384 136.411,128.799 136.180 C 128.515 136.068,125.159 135.967,121.342 135.955 L 114.402 135.934 114.253 128.657 C 114.084 120.485,113.827 119.330,111.461 116.106 C 108.373 111.899,101.921 109.666,96.709 111.001 M234.859 132.533 C 234.749 132.643,234.659 135.027,234.659 137.831 L 234.659 142.929 233.983 142.357 L 233.308 141.785 233.880 142.461 C 234.853 143.610,234.930 143.293,235.021 137.734 C 235.069 134.763,235.098 132.333,235.084 132.333 C 235.070 132.333,234.969 132.423,234.859 132.533 M242.600 148.087 C 242.600 156.669,242.639 160.137,242.685 155.793 C 242.732 151.449,242.732 144.427,242.685 140.189 C 242.638 135.951,242.600 139.505,242.600 148.087 M315.818 148.087 C 315.819 156.669,315.857 160.137,315.904 155.793 C 315.951 151.449,315.951 144.427,315.904 140.189 C 315.857 135.951,315.818 139.505,315.818 148.087 M323.540 138.110 C 323.507 141.204,323.582 143.736,323.706 143.737 C 323.830 143.737,323.896 142.083,323.853 140.061 C 323.705 133.147,323.598 132.482,323.540 138.110 M155.877 134.153 C 155.768 134.330,155.760 134.555,155.859 134.654 C 155.958 134.753,156.039 134.676,156.039 134.484 C 156.039 133.973,164.167 133.996,164.742 134.509 C 165.100 134.828,165.103 134.805,164.765 134.359 C 164.295 133.737,156.249 133.552,155.877 134.153 M179.728 134.351 C 179.383 134.805,179.386 134.829,179.744 134.509 C 180.038 134.247,181.417 134.134,184.303 134.134 L 188.441 134.134 188.524 148.762 L 188.606 163.391 188.601 148.687 L 188.597 133.983 184.364 133.901 C 180.602 133.827,180.087 133.877,179.728 134.351 M250.713 135.531 C 253.564 135.750,257.098 135.766,256.969 135.559 C 256.892 135.435,255.183 135.357,253.171 135.386 C 251.159 135.415,250.053 135.480,250.713 135.531 M135.008 139.419 C 135.736 140.050,136.850 141.368,137.483 142.348 C 138.117 143.327,138.635 144.004,138.635 143.852 C 138.635 143.035,136.051 139.861,134.584 138.876 C 134.089 138.543,134.279 138.788,135.008 139.419 M249.062 140.718 C 249.062 141.539,248.972 141.609,247.787 141.716 L 246.512 141.831 247.937 141.883 L 249.362 141.935 249.362 140.885 C 249.362 140.308,249.295 139.835,249.212 139.835 C 249.130 139.835,249.062 140.232,249.062 140.718 M200.900 140.735 C 200.136 141.064,200.924 141.064,201.950 140.735 C 202.554 140.542,202.583 140.493,202.101 140.486 C 201.770 140.481,201.230 140.593,200.900 140.735 M229.282 140.543 C 229.351 140.602,229.812 140.741,230.308 140.852 C 230.965 140.999,231.086 140.971,230.758 140.749 C 230.352 140.475,228.981 140.283,229.282 140.543 M279.070 140.735 C 280.096 141.064,280.885 141.064,280.120 140.735 C 279.790 140.593,279.250 140.481,278.920 140.486 C 278.437 140.493,278.467 140.542,279.070 140.735 M304.276 140.735 C 305.302 141.064,306.091 141.064,305.326 140.735 C 304.996 140.593,304.456 140.481,304.126 140.486 C 303.644 140.493,303.673 140.542,304.276 140.735 M258.440 141.856 C 259.224 141.918,260.506 141.918,261.290 141.856 C 262.074 141.794,261.433 141.744,259.865 141.744 C 258.297 141.744,257.656 141.794,258.440 141.856 M262.972 144.486 C 262.971 145.971,263.022 146.617,263.085 145.921 C 263.148 145.224,263.149 144.009,263.087 143.220 C 263.025 142.431,262.973 143.001,262.972 144.486 M212.453 143.586 C 213.013 144.164,213.539 144.636,213.621 144.636 C 213.704 144.636,213.313 144.164,212.753 143.586 C 212.193 143.008,211.668 142.536,211.585 142.536 C 211.503 142.536,211.893 143.008,212.453 143.586 M310.278 143.586 C 310.837 144.164,311.363 144.636,311.446 144.636 C 311.528 144.636,311.138 144.164,310.578 143.586 C 310.018 143.008,309.492 142.536,309.410 142.536 C 309.327 142.536,309.718 143.008,310.278 143.586 M267.651 143.961 L 266.617 145.086 267.742 144.052 C 268.789 143.090,269.005 142.836,268.776 142.836 C 268.726 142.836,268.220 143.342,267.651 143.961 M138.985 145.252 C 139.161 145.755,139.360 146.111,139.428 146.043 C 139.577 145.895,139.010 144.336,138.808 144.336 C 138.730 144.336,138.810 144.748,138.985 145.252 M181.175 153.113 C 181.297 163.862,181.424 164.592,181.488 154.914 C 181.519 150.086,181.444 146.136,181.320 146.136 C 181.197 146.136,181.131 149.276,181.175 153.113 M205.701 146.327 C 205.866 146.472,206.474 146.995,207.051 147.489 L 208.100 148.387 207.351 147.534 C 206.939 147.065,206.332 146.542,206.002 146.372 C 205.671 146.202,205.536 146.182,205.701 146.327 M163.001 155.064 C 163.065 164.203,163.184 163.346,163.313 152.813 C 163.356 149.306,163.290 146.436,163.166 146.436 C 163.042 146.436,162.968 150.319,163.001 155.064 M247.772 147.256 L 249.032 147.370 249.142 148.929 L 249.251 150.488 249.307 148.762 L 249.362 147.037 247.937 147.089 L 246.512 147.142 247.772 147.256 M258.440 147.257 C 259.224 147.319,260.506 147.319,261.290 147.257 C 262.074 147.196,261.433 147.145,259.865 147.145 C 258.297 147.145,257.656 147.196,258.440 147.257 M139.936 150.038 C 139.936 151.275,139.989 151.782,140.054 151.163 C 140.118 150.544,140.118 149.531,140.054 148.912 C 139.989 148.293,139.936 148.800,139.936 150.038 M339.515 155.739 C 339.515 159.947,339.557 161.669,339.609 159.565 C 339.661 157.461,339.661 154.017,339.609 151.913 C 339.557 149.809,339.515 151.530,339.515 155.739 M207.952 149.554 C 207.952 150.021,207.570 150.061,203.929 149.979 C 201.716 149.929,199.969 149.989,200.046 150.113 C 200.345 150.595,207.958 150.371,208.149 149.875 C 208.246 149.620,208.242 149.327,208.139 149.224 C 208.036 149.121,207.952 149.270,207.952 149.554 M272.564 149.587 C 272.641 150.332,280.598 150.543,280.748 149.805 C 280.790 149.595,280.757 149.561,280.673 149.730 C 280.376 150.328,272.837 150.123,272.657 149.512 C 272.537 149.104,272.516 149.121,272.564 149.587 M290.065 149.801 C 289.963 150.178,289.900 151.433,289.924 152.588 L 289.968 154.689 290.169 151.988 C 290.383 149.127,290.362 148.690,290.065 149.801 M331.411 156.789 C 331.412 160.585,331.455 162.097,331.507 160.148 C 331.559 158.200,331.559 155.094,331.507 153.246 C 331.454 151.399,331.411 152.993,331.411 156.789 M234.509 152.438 C 234.509 153.562,234.608 154.325,234.729 154.135 C 234.850 153.944,234.950 153.181,234.950 152.438 C 234.950 151.695,234.850 150.932,234.729 150.741 C 234.608 150.551,234.509 151.314,234.509 152.438 M323.668 150.799 C 323.565 151.067,323.509 154.078,323.544 157.489 L 323.608 163.691 323.769 157.089 C 323.944 149.972,323.945 150.077,323.668 150.799 M215.706 152.739 C 215.650 153.729,215.705 154.539,215.829 154.539 C 215.953 154.539,216.054 153.728,216.054 152.738 C 216.054 150.414,215.837 150.414,215.706 152.739 M225.446 152.438 C 225.446 153.346,225.503 153.717,225.571 153.263 C 225.640 152.809,225.640 152.067,225.571 151.613 C 225.503 151.159,225.446 151.530,225.446 152.438 M264.448 152.438 C 264.448 153.181,264.506 153.485,264.578 153.113 C 264.649 152.742,264.649 152.134,264.578 151.763 C 264.506 151.392,264.448 151.695,264.448 152.438 M288.458 152.588 C 288.460 153.413,288.518 153.715,288.587 153.259 C 288.656 152.803,288.655 152.128,288.583 151.759 C 288.512 151.390,288.456 151.763,288.458 152.588 M138.985 154.823 C 138.810 155.327,138.730 155.739,138.808 155.739 C 139.010 155.739,139.577 154.180,139.428 154.032 C 139.360 153.964,139.161 154.320,138.985 154.823 M233.328 156.264 C 232.680 157.093,232.628 157.232,233.131 156.793 C 233.732 156.267,234.526 155.139,234.294 155.139 C 234.247 155.139,233.812 155.645,233.328 156.264 M265.130 156.714 C 265.242 157.086,265.457 157.521,265.608 157.683 C 265.759 157.844,265.731 157.540,265.545 157.007 C 265.165 155.917,264.814 155.670,265.130 156.714 M285.013 157.931 C 286.045 158.972,286.784 159.939,286.655 160.080 C 286.527 160.221,286.604 160.231,286.827 160.102 C 287.184 159.895,283.826 156.039,283.288 156.039 C 283.206 156.039,283.982 156.890,285.013 157.931 M204.281 158.057 C 204.821 158.124,205.631 158.122,206.082 158.054 C 206.533 157.985,206.092 157.931,205.101 157.932 C 204.111 157.934,203.742 157.990,204.281 158.057 M276.900 158.057 C 277.439 158.124,278.249 158.122,278.700 158.054 C 279.151 157.985,278.710 157.931,277.719 157.932 C 276.729 157.934,276.360 157.990,276.900 158.057 M291.373 158.632 C 291.373 158.783,291.947 159.519,292.648 160.267 C 293.350 161.016,293.643 161.282,293.299 160.859 C 292.956 160.436,292.382 159.700,292.024 159.224 C 291.666 158.748,291.373 158.482,291.373 158.632 M135.770 160.015 L 134.584 161.290 135.859 160.104 C 137.045 159.001,137.272 158.740,137.045 158.740 C 136.996 158.740,136.422 159.314,135.770 160.015 M214.089 159.584 C 214.217 159.810,214.081 160.258,213.769 160.634 C 213.238 161.276,213.242 161.275,213.953 160.618 C 214.560 160.058,214.613 159.884,214.273 159.568 C 213.944 159.263,213.908 159.266,214.089 159.584 M194.449 160.034 C 194.449 160.086,194.887 160.524,195.424 161.009 L 196.399 161.890 195.518 160.915 C 194.696 160.006,194.449 159.802,194.449 160.034 M170.827 161.061 C 171.616 161.123,172.831 161.122,173.527 161.059 C 174.224 160.997,173.578 160.946,172.093 160.947 C 170.608 160.948,170.038 160.999,170.827 161.061 M268.542 161.549 C 268.942 162.041,270.068 162.785,270.068 162.558 C 270.068 162.500,269.629 162.132,269.092 161.740 C 268.489 161.298,268.279 161.225,268.542 161.549 M233.735 162.266 C 233.397 162.712,233.400 162.735,233.758 162.416 C 234.387 161.854,234.606 161.954,234.744 162.866 C 234.860 163.634,234.872 163.623,234.914 162.716 C 234.964 161.619,234.390 161.400,233.735 162.266 M155.816 163.541 C 155.915 163.908,156.599 163.994,159.514 164.007 L 163.091 164.023 159.651 163.922 C 157.399 163.855,156.122 163.694,155.952 163.455 C 155.767 163.194,155.728 163.219,155.816 163.541 M224.906 163.841 C 225.236 163.983,225.709 164.099,225.956 164.099 C 226.240 164.099,226.185 164.004,225.806 163.841 C 225.476 163.699,225.004 163.583,224.756 163.583 C 224.472 163.583,224.528 163.678,224.906 163.841 M260.015 163.841 C 259.637 164.004,259.581 164.099,259.865 164.099 C 260.113 164.099,260.585 163.983,260.915 163.841 C 261.294 163.678,261.349 163.583,261.065 163.583 C 260.818 163.583,260.345 163.699,260.015 163.841 M298.425 163.841 C 298.755 163.983,299.295 164.095,299.625 164.090 C 300.107 164.083,300.078 164.034,299.475 163.841 C 298.449 163.512,297.660 163.512,298.425 163.841 M335.334 163.841 L 331.433 164.019 335.241 164.080 C 337.525 164.117,339.124 164.021,339.235 163.841 C 339.337 163.676,339.379 163.568,339.328 163.602 C 339.277 163.636,337.479 163.743,335.334 163.841 M122.056 164.064 C 123.252 164.121,125.210 164.121,126.407 164.064 C 127.603 164.007,126.624 163.960,124.231 163.960 C 121.838 163.960,120.859 164.007,122.056 164.064 M183.283 164.063 C 184.321 164.122,185.941 164.122,186.883 164.062 C 187.826 164.003,186.977 163.955,184.996 163.956 C 183.016 163.956,182.245 164.005,183.283 164.063 M236.847 164.064 C 237.968 164.122,239.723 164.121,240.748 164.063 C 241.772 164.004,240.855 163.957,238.710 163.958 C 236.564 163.958,235.726 164.006,236.847 164.064 M317.867 164.064 C 318.988 164.122,320.743 164.121,321.768 164.063 C 322.793 164.004,321.875 163.957,319.730 163.958 C 317.584 163.958,316.746 164.006,317.867 164.064 M114.393 171.976 C 114.358 173.892,114.265 176.120,114.187 176.927 L 114.045 178.395 114.346 176.955 C 114.512 176.163,114.605 173.935,114.553 172.003 L 114.458 168.492 114.393 171.976 M86.426 178.420 C 86.429 178.736,86.568 179.197,86.735 179.445 C 86.958 179.774,86.986 179.652,86.839 178.995 C 86.592 177.891,86.420 177.652,86.426 178.420 M113.488 179.955 C 113.044 181.402,113.259 181.617,113.728 180.195 C 113.926 179.595,114.030 179.046,113.959 178.975 C 113.887 178.904,113.676 179.345,113.488 179.955 M111.905 183.389 C 111.715 183.743,111.007 184.655,110.331 185.415 L 109.101 186.797 110.296 185.677 C 111.403 184.641,112.766 182.746,112.406 182.746 C 112.320 182.746,112.094 183.035,111.905 183.389 M90.323 185.596 C 90.882 186.174,91.408 186.647,91.491 186.647 C 91.573 186.647,91.183 186.174,90.623 185.596 C 90.063 185.019,89.537 184.546,89.455 184.546 C 89.372 184.546,89.763 185.019,90.323 185.596 M96.624 189.347 C 97.037 189.479,97.644 189.588,97.974 189.588 C 98.450 189.588,98.418 189.538,97.824 189.347 C 97.412 189.215,96.804 189.107,96.474 189.107 C 95.999 189.107,96.030 189.157,96.624 189.347 M102.926 189.347 C 102.323 189.540,102.293 189.589,102.776 189.596 C 103.106 189.601,103.646 189.489,103.976 189.347 C 104.741 189.019,103.952 189.019,102.926 189.347 " stroke="none" fill="#86d0d0" fill-rule="evenodd"></path><path id="path4" d="M236.984 132.555 C 238.016 132.614,239.704 132.614,240.735 132.555 C 241.767 132.497,240.923 132.449,238.860 132.449 C 236.797 132.449,235.953 132.497,236.984 132.555 M317.867 132.556 C 318.988 132.614,320.743 132.613,321.768 132.555 C 322.793 132.497,321.875 132.449,319.730 132.450 C 317.584 132.450,316.746 132.498,317.867 132.556 M160.123 134.353 L 164.357 134.450 164.896 135.645 C 165.193 136.302,165.490 136.786,165.556 136.720 C 165.622 136.653,165.432 136.078,165.132 135.441 L 164.587 134.284 160.238 134.270 L 155.889 134.257 160.123 134.353 M179.805 134.494 C 179.607 134.692,179.445 134.988,179.445 135.151 C 179.445 135.315,179.614 135.223,179.820 134.946 C 180.133 134.527,180.886 134.429,184.396 134.355 L 188.597 134.265 184.381 134.199 C 181.424 134.153,180.058 134.241,179.805 134.494 M155.878 148.987 C 155.878 156.909,155.916 160.107,155.964 156.093 C 156.011 152.080,156.011 145.598,155.964 141.690 C 155.916 137.781,155.878 141.065,155.878 148.987 M249.362 138.760 L 249.362 141.904 247.787 141.995 L 246.212 142.086 246.122 144.307 C 246.065 145.731,246.160 146.647,246.386 146.858 C 246.655 147.108,246.697 146.806,246.562 145.591 C 246.254 142.814,246.498 142.281,248.122 142.176 L 249.512 142.086 249.598 139.010 L 249.683 135.934 253.263 135.934 L 256.843 135.934 256.929 139.010 L 257.014 142.086 259.941 142.103 L 262.867 142.120 260.026 142.017 L 257.185 141.914 257.100 138.849 L 257.014 135.784 253.188 135.700 L 249.362 135.616 249.362 138.760 M114.096 141.410 L 114.163 146.587 114.253 141.566 L 114.343 136.545 121.163 136.459 L 127.982 136.372 121.005 136.303 L 114.029 136.234 114.096 141.410 M128.457 136.641 C 128.526 136.700,129.055 136.835,129.632 136.941 C 130.371 137.076,130.549 137.046,130.233 136.838 C 129.826 136.572,128.160 136.387,128.457 136.641 M135.484 140.374 C 136.474 141.391,137.322 142.226,137.368 142.229 C 137.684 142.253,135.916 140.283,134.911 139.492 C 133.950 138.734,134.074 138.926,135.484 140.374 M166.563 139.085 C 166.563 139.250,166.756 139.722,166.992 140.135 C 167.228 140.548,167.421 140.750,167.421 140.585 C 167.421 140.420,167.228 139.947,166.992 139.535 C 166.756 139.122,166.563 138.920,166.563 139.085 M202.009 140.690 C 201.629 140.797,202.710 140.888,204.410 140.890 C 206.111 140.893,207.097 140.808,206.602 140.701 C 205.431 140.448,202.889 140.442,202.009 140.690 M227.382 140.647 C 227.753 140.718,228.361 140.718,228.732 140.647 C 229.104 140.575,228.800 140.517,228.057 140.517 C 227.314 140.517,227.011 140.575,227.382 140.647 M275.194 140.544 C 275.263 140.603,276.332 140.722,277.569 140.808 C 278.839 140.896,279.493 140.862,279.070 140.729 C 278.326 140.497,274.954 140.335,275.194 140.544 M299.475 140.726 C 299.062 140.853,299.805 140.889,301.125 140.805 C 302.446 140.722,303.582 140.604,303.651 140.544 C 303.889 140.336,300.221 140.496,299.475 140.726 M328.820 140.681 C 328.538 140.793,329.528 140.886,331.019 140.886 C 332.510 140.887,333.415 140.799,333.031 140.691 C 332.106 140.431,329.465 140.425,328.820 140.681 M167.442 141.087 C 167.442 141.388,168.665 144.036,168.804 144.036 C 168.984 144.036,168.017 141.559,167.697 141.200 C 167.557 141.044,167.442 140.993,167.442 141.087 M199.400 141.335 C 199.022 141.498,198.966 141.593,199.250 141.593 C 199.497 141.593,199.970 141.477,200.300 141.335 C 200.678 141.173,200.734 141.077,200.450 141.077 C 200.203 141.077,199.730 141.193,199.400 141.335 M207.952 141.109 C 208.194 141.349,210.953 142.514,210.953 142.376 C 210.953 142.307,210.581 142.062,210.128 141.831 C 209.229 141.374,207.710 140.870,207.952 141.109 M271.868 141.335 C 271.468 141.594,271.468 141.626,271.868 141.626 C 272.116 141.626,272.521 141.495,272.768 141.335 C 273.168 141.077,273.168 141.044,272.768 141.044 C 272.521 141.044,272.116 141.175,271.868 141.335 M297.224 141.335 C 296.846 141.498,296.791 141.593,297.074 141.593 C 297.322 141.593,297.794 141.477,298.125 141.335 C 298.503 141.173,298.558 141.077,298.275 141.077 C 298.027 141.077,297.554 141.193,297.224 141.335 M221.840 142.509 C 220.724 143.317,219.759 144.441,219.240 145.536 C 219.123 145.784,219.268 145.649,219.563 145.236 C 220.275 144.239,221.402 143.119,222.506 142.313 C 223.001 141.951,223.325 141.650,223.226 141.645 C 223.127 141.640,222.503 142.029,221.840 142.509 M233.470 142.523 C 234.041 143.012,234.628 143.417,234.775 143.424 C 234.921 143.430,234.532 143.031,233.908 142.536 C 232.446 141.374,232.114 141.365,233.470 142.523 M270.218 142.132 C 269.140 142.697,267.143 144.548,266.706 145.386 C 266.534 145.716,266.894 145.412,267.505 144.709 C 268.117 144.006,269.214 143.082,269.943 142.655 C 270.672 142.228,271.268 141.824,271.268 141.757 C 271.268 141.587,271.228 141.601,270.218 142.132 M283.154 142.416 C 283.796 142.846,284.724 143.555,285.217 143.992 C 286.017 144.701,286.049 144.710,285.517 144.067 C 284.814 143.219,282.709 141.635,282.284 141.635 C 282.120 141.635,282.512 141.987,283.154 142.416 M307.444 141.963 C 307.537 142.113,307.788 142.236,308.002 142.236 C 308.629 142.236,311.221 144.674,311.656 145.672 C 311.984 146.424,312.057 146.472,312.066 145.944 C 312.080 145.217,308.932 142.124,307.905 141.856 C 307.559 141.765,307.352 141.814,307.444 141.963 M324.981 142.572 C 323.935 143.489,323.935 143.490,324.897 142.850 C 325.429 142.497,325.943 142.079,326.040 141.922 C 326.330 141.453,326.090 141.601,324.981 142.572 M336.520 142.778 C 337.172 143.470,337.742 144.036,337.786 144.036 C 338.093 144.036,337.350 143.139,336.433 142.403 L 335.334 141.520 336.520 142.778 M138.095 143.879 C 138.454 144.618,138.799 145.172,138.862 145.109 C 138.998 144.973,137.785 142.536,137.582 142.536 C 137.505 142.536,137.736 143.140,138.095 143.879 M195.725 143.558 C 195.105 144.120,194.356 145.032,194.060 145.583 C 193.578 146.483,193.576 146.509,194.047 145.836 C 194.335 145.424,195.153 144.512,195.865 143.811 C 197.413 142.287,197.316 142.113,195.725 143.558 M212.199 143.590 C 212.802 144.248,213.577 145.259,213.923 145.836 C 214.269 146.414,214.552 146.738,214.553 146.557 C 214.554 146.087,212.992 144.022,211.969 143.140 C 211.354 142.611,211.421 142.741,212.199 143.590 M168.942 144.395 C 168.942 144.493,169.603 145.989,170.411 147.718 C 171.747 150.580,172.543 151.789,172.543 150.955 C 172.543 150.781,172.432 150.638,172.297 150.638 C 172.162 150.638,171.464 149.321,170.746 147.712 C 169.559 145.052,168.942 143.917,168.942 144.395 M286.654 146.258 C 287.014 146.996,287.357 147.551,287.416 147.493 C 287.563 147.346,286.558 145.264,286.248 145.072 C 286.111 144.987,286.293 145.521,286.654 146.258 M291.663 146.002 C 291.301 146.589,291.056 147.120,291.118 147.182 C 291.181 147.245,291.538 146.766,291.912 146.116 C 292.758 144.646,292.558 144.554,291.663 146.002 M138.986 145.836 C 139.001 146.616,139.473 147.897,139.484 147.187 C 139.489 146.857,139.377 146.317,139.235 145.986 C 139.077 145.619,138.980 145.561,138.986 145.836 M338.668 146.287 C 338.915 147.390,339.086 147.629,339.080 146.862 C 339.078 146.545,338.939 146.084,338.771 145.836 C 338.549 145.508,338.521 145.629,338.668 146.287 M162.641 154.679 L 162.641 163.521 159.265 163.617 L 155.889 163.713 159.415 163.777 L 162.941 163.841 162.941 155.139 C 162.941 149.214,163.042 146.437,163.259 146.437 C 163.433 146.437,163.493 146.302,163.391 146.137 C 162.764 145.123,162.641 146.533,162.641 154.679 M201.920 146.514 C 200.657 147.353,199.406 149.653,199.893 150.239 C 200.138 150.534,201.268 150.638,204.247 150.638 C 208.654 150.638,208.898 150.535,208.298 148.922 C 207.989 148.090,207.988 148.091,208.045 149.137 L 208.102 150.188 204.225 150.272 C 199.785 150.369,199.683 150.324,200.440 148.635 C 201.136 147.080,202.222 146.347,204.183 146.107 L 205.701 145.921 204.320 145.879 C 203.336 145.849,202.647 146.031,201.920 146.514 M276.369 146.041 C 278.304 146.239,278.856 146.465,279.762 147.429 C 280.433 148.142,280.570 148.210,280.297 147.696 C 279.712 146.590,278.194 145.833,276.669 145.886 C 275.499 145.926,275.459 145.947,276.369 146.041 M265.877 146.717 C 265.497 147.427,265.479 147.726,265.830 147.509 C 266.095 147.346,266.508 146.137,266.299 146.137 C 266.238 146.137,266.048 146.398,265.877 146.717 M274.034 146.962 C 273.316 147.663,273.304 147.698,273.954 147.191 C 275.235 146.194,275.296 146.137,275.084 146.137 C 274.971 146.137,274.498 146.508,274.034 146.962 M229.145 146.700 C 228.790 146.839,229.178 146.928,230.195 146.940 C 231.286 146.953,231.614 146.881,231.208 146.719 C 230.461 146.420,229.870 146.415,229.145 146.700 M309.227 147.637 C 307.029 149.051,306.865 149.065,305.581 147.937 C 305.017 147.442,304.391 147.037,304.191 147.038 C 303.990 147.038,304.231 147.287,304.726 147.589 C 305.221 147.892,305.812 148.364,306.038 148.639 C 306.621 149.345,309.911 148.103,311.399 146.615 C 311.916 146.098,310.812 146.618,309.227 147.637 M180.088 148.130 C 179.719 148.889,179.480 149.572,179.556 149.649 C 179.632 149.725,179.978 149.148,180.324 148.366 C 181.140 146.520,180.958 146.338,180.088 148.130 M301.650 146.944 C 301.939 147.019,302.412 147.019,302.701 146.944 C 302.989 146.868,302.753 146.806,302.176 146.806 C 301.598 146.806,301.362 146.868,301.650 146.944 M232.815 147.837 C 233.370 148.274,234.082 149.184,234.399 149.859 C 234.716 150.535,234.904 150.840,234.817 150.538 C 234.730 150.236,234.659 149.819,234.659 149.613 C 234.659 149.151,232.582 147.035,232.133 147.040 C 231.954 147.042,232.261 147.401,232.815 147.837 M249.422 152.738 C 249.394 155.956,249.471 158.746,249.592 158.938 C 249.713 159.129,249.777 157.171,249.733 154.587 C 249.607 147.151,249.478 146.382,249.422 152.738 M256.931 151.891 L 256.864 156.896 257.655 157.518 C 258.492 158.176,259.328 158.273,260.315 157.825 C 260.743 157.632,260.591 157.604,259.789 157.730 C 257.394 158.106,257.192 157.671,257.089 151.911 L 256.999 146.887 256.931 151.891 M299.540 147.862 C 299.076 148.316,298.972 148.469,299.310 148.203 C 299.648 147.937,300.195 147.570,300.525 147.387 C 300.855 147.204,300.959 147.051,300.755 147.046 C 300.551 147.041,300.005 147.408,299.540 147.862 M326.077 147.562 C 326.000 147.686,326.654 147.741,327.531 147.686 C 329.401 147.567,330.200 147.923,330.998 149.231 C 331.318 149.757,331.581 150.005,331.582 149.782 C 331.586 148.233,326.848 146.321,326.077 147.562 M214.875 148.144 C 214.863 148.506,214.989 148.885,215.154 148.987 C 215.509 149.207,215.509 148.913,215.154 148.087 C 214.905 147.508,214.895 147.510,214.875 148.144 M218.010 148.149 C 217.635 149.072,217.491 153.729,217.798 154.989 C 218.028 155.933,218.059 155.581,217.943 153.338 C 217.862 151.770,217.936 149.884,218.108 149.145 C 218.435 147.742,218.384 147.227,218.010 148.149 M226.646 148.005 C 225.979 148.866,225.913 149.241,226.543 148.592 C 226.914 148.210,227.155 147.835,227.080 147.760 C 227.004 147.684,226.809 147.794,226.646 148.005 M290.660 148.099 C 290.557 148.367,290.486 148.879,290.503 149.237 C 290.523 149.648,290.625 149.502,290.780 148.839 C 291.043 147.724,290.971 147.287,290.660 148.099 M265.158 148.600 C 265.057 148.978,264.986 149.557,265.000 149.887 C 265.015 150.218,265.150 149.961,265.301 149.317 C 265.594 148.070,265.469 147.442,265.158 148.600 M287.669 148.987 C 287.769 149.647,287.901 150.244,287.962 150.313 C 288.189 150.570,288.019 148.963,287.758 148.387 C 287.568 147.969,287.541 148.151,287.669 148.987 M339.154 155.664 L 339.085 163.541 335.490 163.541 L 331.895 163.541 331.808 157.014 L 331.721 150.488 331.652 157.164 L 331.583 163.841 335.343 163.841 C 339.886 163.841,339.415 164.840,339.310 155.434 L 339.224 147.787 339.154 155.664 M139.631 150.038 C 139.631 151.110,139.685 151.549,139.752 151.013 C 139.819 150.476,139.819 149.599,139.752 149.062 C 139.685 148.526,139.631 148.965,139.631 150.038 M280.652 149.287 L 280.720 150.188 276.861 150.272 C 274.061 150.333,272.874 150.251,272.536 149.972 C 272.149 149.652,272.096 149.663,272.219 150.038 C 272.339 150.402,273.135 150.503,276.425 150.571 C 280.898 150.663,281.456 150.478,280.882 149.101 C 280.598 148.420,280.587 148.428,280.652 149.287 M192.234 151.013 C 192.133 151.879,192.169 153.263,192.314 154.089 C 192.551 155.438,192.581 155.280,192.613 152.513 C 192.652 149.128,192.516 148.591,192.234 151.013 M165.041 150.389 C 165.041 150.691,166.264 153.338,166.403 153.338 C 166.584 153.338,165.617 150.861,165.296 150.503 C 165.156 150.346,165.041 150.295,165.041 150.389 M215.511 152.213 L 215.454 154.239 207.820 154.239 C 200.234 154.239,199.253 154.366,200.134 155.240 C 200.402 155.506,200.438 155.464,200.286 155.064 C 200.099 154.572,200.576 154.539,207.779 154.539 C 216.464 154.539,215.849 154.740,215.677 151.954 L 215.567 150.188 215.511 152.213 M264.756 152.438 C 264.756 153.346,264.812 153.717,264.881 153.263 C 264.950 152.809,264.950 152.067,264.881 151.613 C 264.812 151.159,264.756 151.530,264.756 152.438 M288.060 152.438 L 287.922 154.089 280.334 154.169 C 272.463 154.252,271.580 154.411,272.762 155.534 C 273.057 155.814,273.093 155.746,272.932 155.214 L 272.728 154.539 280.409 154.539 C 289.001 154.539,288.478 154.690,288.303 152.250 L 288.199 150.788 288.060 152.438 M297.623 151.613 C 297.557 151.984,297.593 152.693,297.703 153.188 C 297.865 153.917,297.910 153.788,297.939 152.513 C 297.976 150.870,297.831 150.456,297.623 151.613 M225.138 152.438 C 225.138 153.181,225.197 153.485,225.268 153.113 C 225.340 152.742,225.340 152.134,225.268 151.763 C 225.197 151.392,225.138 151.695,225.138 152.438 M139.122 153.376 C 138.872 154.627,139.115 154.869,139.385 153.638 C 139.499 153.120,139.529 152.633,139.453 152.556 C 139.377 152.480,139.228 152.849,139.122 153.376 M177.055 155.035 C 176.715 155.803,176.502 156.497,176.582 156.577 C 176.662 156.657,176.879 156.332,177.064 155.856 C 177.250 155.379,177.520 154.685,177.666 154.314 C 178.155 153.062,177.678 153.626,177.055 155.035 M234.409 154.823 C 234.233 155.327,234.154 155.739,234.232 155.739 C 234.434 155.739,235.000 154.180,234.852 154.032 C 234.784 153.964,234.584 154.320,234.409 154.823 M265.001 155.139 C 264.987 155.551,265.106 156.092,265.266 156.339 C 265.637 156.912,265.637 156.295,265.266 155.139 L 265.026 154.389 265.001 155.139 M297.978 154.689 C 297.978 154.854,298.247 155.394,298.575 155.889 C 299.352 157.062,299.353 156.645,298.576 155.371 C 298.246 154.831,297.977 154.524,297.978 154.689 M290.524 155.589 C 290.519 155.919,290.631 156.459,290.773 156.789 C 291.101 157.554,291.101 156.765,290.773 155.739 C 290.580 155.136,290.531 155.106,290.524 155.589 M306.106 156.114 C 305.695 156.784,305.697 156.785,306.323 156.228 C 306.675 155.915,307.165 155.747,307.431 155.849 C 307.707 155.955,307.831 155.907,307.725 155.735 C 307.402 155.214,306.534 155.417,306.106 156.114 M226.468 156.476 C 226.764 156.882,227.209 157.296,227.456 157.396 C 227.704 157.496,227.510 157.164,227.025 156.658 C 225.962 155.549,225.736 155.475,226.468 156.476 M209.477 156.536 C 209.087 156.809,208.280 157.276,207.685 157.574 C 207.089 157.872,206.792 158.121,207.025 158.128 C 207.259 158.134,208.114 157.713,208.926 157.192 L 210.402 156.245 212.253 158.112 L 214.104 159.979 212.928 161.010 C 212.282 161.577,211.838 162.041,211.943 162.041 C 212.236 162.041,214.254 160.208,214.254 159.941 C 214.254 159.626,210.736 156.039,210.427 156.039 C 210.294 156.039,209.867 156.263,209.477 156.536 M233.273 156.658 C 232.932 156.999,232.126 157.465,231.481 157.695 C 230.835 157.925,230.551 158.119,230.848 158.126 C 231.570 158.144,232.877 157.447,233.581 156.670 C 234.316 155.857,234.082 155.848,233.273 156.658 M281.620 156.837 L 280.720 157.613 281.871 156.935 L 283.023 156.258 285.022 158.174 L 287.022 160.090 285.080 158.065 C 282.891 155.781,282.858 155.769,281.620 156.837 M309.977 157.209 C 310.390 157.550,310.977 157.913,311.282 158.014 C 311.682 158.147,311.797 158.405,311.695 158.942 C 311.603 159.422,311.655 159.582,311.843 159.394 C 312.385 158.853,311.933 158.125,310.578 157.355 C 309.545 156.769,309.404 156.735,309.977 157.209 M175.894 157.824 C 175.719 158.328,175.639 158.740,175.717 158.740 C 175.920 158.740,176.486 157.181,176.337 157.032 C 176.269 156.964,176.070 157.321,175.894 157.824 M168.056 157.464 C 168.074 157.768,169.512 160.440,169.529 160.203 C 169.550 159.913,168.331 157.239,168.178 157.239 C 168.103 157.239,168.048 157.341,168.056 157.464 M291.513 158.421 C 291.764 158.905,292.105 159.386,292.271 159.489 C 292.438 159.592,292.291 159.195,291.944 158.608 C 291.184 157.320,290.874 157.185,291.513 158.421 M301.472 157.939 C 302.033 158.100,302.746 158.100,303.228 157.939 C 303.896 157.716,303.728 157.668,302.285 157.668 C 300.744 157.668,300.644 157.701,301.472 157.939 M135.484 159.701 C 134.193 161.026,133.996 161.316,134.788 160.724 C 135.697 160.046,137.694 157.824,137.375 157.846 C 137.325 157.849,136.474 158.684,135.484 159.701 M262.016 158.140 C 262.032 158.919,262.504 160.200,262.515 159.490 C 262.519 159.160,262.407 158.620,262.266 158.290 C 262.108 157.922,262.011 157.864,262.016 158.140 M266.350 158.740 C 266.853 159.731,267.780 160.810,268.675 161.441 C 269.592 162.089,269.589 162.080,268.566 161.098 C 267.987 160.544,267.201 159.685,266.818 159.190 C 266.435 158.695,266.225 158.492,266.350 158.740 M219.553 159.640 C 219.845 160.135,220.194 160.540,220.329 160.540 C 220.463 160.540,220.274 160.135,219.908 159.640 C 219.541 159.145,219.192 158.740,219.131 158.740 C 219.071 158.740,219.260 159.145,219.553 159.640 M195.691 160.912 C 197.139 162.317,199.000 163.450,198.482 162.613 C 198.390 162.463,198.130 162.341,197.906 162.341 C 197.681 162.341,196.710 161.650,195.748 160.806 L 193.998 159.271 195.691 160.912 M249.962 159.880 C 249.962 160.823,252.694 163.541,253.642 163.541 C 253.801 163.541,253.286 163.102,252.497 162.566 C 251.709 162.029,250.816 161.120,250.513 160.545 C 250.210 159.970,249.962 159.671,249.962 159.880 M293.877 161.258 C 294.677 162.018,295.488 162.634,295.678 162.625 C 295.868 162.616,295.690 162.380,295.281 162.100 C 294.872 161.820,294.062 161.204,293.480 160.733 C 292.899 160.261,293.078 160.497,293.877 161.258 M170.818 160.761 C 171.602 160.823,172.884 160.823,173.668 160.761 C 174.452 160.699,173.811 160.648,172.243 160.648 C 170.675 160.648,170.034 160.699,170.818 160.761 M220.910 161.309 C 221.396 161.869,223.256 163.097,223.256 162.859 C 223.256 162.795,222.614 162.289,221.830 161.735 C 221.047 161.182,220.632 160.990,220.910 161.309 M233.824 161.965 C 233.359 162.419,233.265 162.554,233.613 162.266 C 233.962 161.977,234.407 161.740,234.603 161.740 C 234.799 161.740,234.959 161.605,234.959 161.440 C 234.959 160.972,234.734 161.076,233.824 161.965 M262.907 161.815 C 262.876 162.433,262.623 162.751,261.890 163.087 C 261.187 163.410,261.125 163.485,261.665 163.356 C 262.744 163.098,263.238 162.523,263.083 161.704 C 262.958 161.044,262.944 161.052,262.907 161.815 M132.382 162.034 C 131.134 162.731,130.913 162.942,131.628 162.754 C 132.136 162.621,133.880 161.440,133.533 161.464 C 133.451 161.470,132.933 161.727,132.382 162.034 M308.700 162.015 C 307.500 162.784,307.279 163.095,308.327 162.540 C 309.584 161.873,310.181 161.446,309.827 161.467 C 309.662 161.476,309.155 161.723,308.700 162.015 M269.929 162.359 C 270.109 162.651,272.740 163.671,272.896 163.509 C 272.959 163.444,272.285 163.106,271.397 162.758 C 270.510 162.410,269.849 162.230,269.929 162.359 M209.227 162.976 C 208.691 163.131,208.252 163.336,208.252 163.432 C 208.252 163.677,209.843 163.256,210.188 162.920 C 210.513 162.601,210.530 162.600,209.227 162.976 M199.250 163.241 C 199.497 163.401,199.902 163.532,200.150 163.532 C 200.550 163.532,200.550 163.499,200.150 163.241 C 199.902 163.081,199.497 162.950,199.250 162.950 C 198.850 162.950,198.850 162.982,199.250 163.241 M281.170 163.241 C 280.770 163.499,280.770 163.532,281.170 163.532 C 281.418 163.532,281.823 163.401,282.071 163.241 C 282.471 162.982,282.471 162.950,282.071 162.950 C 281.823 162.950,281.418 163.081,281.170 163.241 M297.074 163.241 C 297.322 163.401,297.727 163.532,297.974 163.532 C 298.375 163.532,298.375 163.499,297.974 163.241 C 297.727 163.081,297.322 162.950,297.074 162.950 C 296.674 162.950,296.674 162.982,297.074 163.241 M306.077 163.241 C 305.676 163.499,305.676 163.532,306.077 163.532 C 306.324 163.532,306.729 163.401,306.977 163.241 C 307.377 162.982,307.377 162.950,306.977 162.950 C 306.729 162.950,306.324 163.081,306.077 163.241 M234.958 163.616 C 234.958 163.740,236.680 163.817,238.785 163.789 C 242.703 163.735,242.245 163.614,237.584 163.471 C 236.139 163.427,234.958 163.492,234.958 163.616 M315.978 163.616 C 315.979 163.740,317.701 163.817,319.805 163.789 C 323.724 163.735,323.265 163.614,318.604 163.471 C 317.159 163.427,315.978 163.492,315.978 163.616 M121.905 163.763 C 123.020 163.821,124.842 163.821,125.956 163.763 C 127.071 163.706,126.159 163.658,123.931 163.658 C 121.703 163.658,120.791 163.706,121.905 163.763 M183.283 163.763 C 184.321 163.822,185.941 163.822,186.883 163.762 C 187.826 163.703,186.977 163.655,184.996 163.655 C 183.016 163.656,182.245 163.705,183.283 163.763 M201.710 163.886 C 202.585 164.133,206.023 164.130,207.185 163.880 C 207.671 163.776,206.483 163.691,204.544 163.691 C 202.605 163.691,201.330 163.779,201.710 163.886 M225.893 163.895 C 226.175 164.007,227.217 164.099,228.207 164.099 C 229.197 164.099,230.239 164.007,230.521 163.895 C 230.804 163.783,229.763 163.691,228.207 163.691 C 226.651 163.691,225.610 163.783,225.893 163.895 M254.700 163.895 C 254.983 164.007,256.159 164.099,257.314 164.099 C 258.470 164.099,259.646 164.007,259.929 163.895 C 260.211 163.783,259.035 163.691,257.314 163.691 C 255.594 163.691,254.417 163.783,254.700 163.895 M274.326 163.886 C 274.707 163.993,275.896 164.081,276.969 164.081 C 278.042 164.081,279.232 163.993,279.613 163.886 C 279.994 163.779,278.804 163.691,276.969 163.691 C 275.134 163.691,273.945 163.779,274.326 163.886 M299.532 163.886 C 299.913 163.993,301.035 164.081,302.026 164.081 C 303.016 164.081,304.138 163.993,304.519 163.886 C 304.900 163.779,303.778 163.691,302.026 163.691 C 300.273 163.691,299.151 163.779,299.532 163.886 M113.889 169.317 C 113.654 170.373,113.554 179.150,113.782 178.740 C 113.963 178.415,114.280 168.641,114.109 168.642 C 114.071 168.642,113.972 168.946,113.889 169.317 M109.735 185.336 C 108.186 186.814,107.883 187.440,109.378 186.075 C 110.389 185.151,111.484 183.942,111.299 183.953 C 111.232 183.957,110.529 184.579,109.735 185.336 M96.225 188.747 C 96.545 189.039,98.945 189.472,98.662 189.186 C 98.544 189.068,97.892 188.869,97.212 188.745 C 96.532 188.621,96.088 188.621,96.225 188.747 M103.394 188.785 C 102.743 188.937,102.136 189.138,102.043 189.231 C 101.767 189.510,104.252 188.997,104.561 188.711 C 104.718 188.566,104.785 188.461,104.711 188.477 C 104.637 188.494,104.044 188.632,103.394 188.785 " stroke="none" fill="#7c8c9c" fill-rule="evenodd"></path></g></svg>